:SAMPLES-PER-SECOND 30
:FULLY-SPECIFIED
:DEGREES
254
root  34.94141346 36.50026096 -14.93923007 7.960240364 -6.382976055 3.901828051
lowerback  -7.41604948 -1.004310012 -0.8492068648
upperback  -3.807559967 -0.8373789787 -3.680140018
thorax  0.183066994 -0.2648839951 -3.382970095
lowerneck  -10.83510017 -4.771790028 -2.275990009
upperneck  14.13249969 -6.957210064 7.26199007
head  6.422140121 -2.770090103 2.085170031
lclavicle  0 -4.497500157e-015 -2.743230041e-014
lhumerus  -46.89970016 28.0855999 64.59490204
lradius  0.004719055258 -6.507048965e-006 30.39380074
lwrist  4.824992743e-007 -3.790274832e-007 -28.18160057
lhand  -4.419802984e-031 -36.97169876 -10.33479977
lfingers  90 7.125020027 -90
lthumb  94.77701547 -25.17443324 101.1146584
rclavicle  0 -4.497500157e-015 -2.743230041e-014
rhumerus  -42.58969879 -30.34309769 -5.478203773
rradius  -5.16745672e-007 2.214343908e-008 74.05999756
rwrist  -7.499573258e-005 0.03438235447 -179.9429932
rhand  -0 3.164629936 -5.974820137
rfingers  -90 -7.125020027 -90
rthumb  -84.58422003 -9.813972112 -60.91679388
rfemur  -12.33861732 17.01593399 12.36616898
rtibia  -1.346281767 -1.220884204 21.25915909
rfoot  0.1625886112 -22.1649971 -35.7810936
rtoes  3.787754031 19.65248545 -101.1365773
lfemur  -8.11065197 -17.22247887 -20.85393143
ltibia  1.983168602 -1.787306428 15.47076988
lfoot  0.882927537 -22.56383514 38.58208847
ltoes  -8.660252044 -18.09736669 -116.1199573
255
root  34.93953014 36.50108998 -14.93631348 7.992630482 -6.345821381 3.907086372
lowerback  -7.413909912 -1.018720031 -0.892343998
upperback  -3.773669958 -0.8591470122 -3.629559994
thorax  0.2174649984 -0.2769750059 -3.307709932
lowerneck  -11.04800034 -4.430079937 -2.120879889
upperneck  14.25870037 -6.50620985 7.147890091
head  6.467189789 -2.546089888 2.061959982
lclavicle  0 -4.497500157e-015 -2.743230041e-014
lhumerus  -46.9211998 28.20919991 64.5891037
lradius  0.004719055258 -6.507048965e-006 30.41760063
lwrist  4.824992743e-007 -3.790274832e-007 -28.2208004
lhand  -4.418108711e-031 -36.94250107 -10.35639954
lfingers  90 7.125020027 -90
lthumb  94.76811891 -25.19669967 101.0854417
rclavicle  0 -4.497500157e-015 -2.743230041e-014
rhumerus  -43.05179977 -29.91309929 -5.78126049
rradius  -5.16745672e-007 2.214343908e-008 75.25319672
rwrist  -7.499573258e-005 0.03438235447 179.5370026
rhand  -1.768079281e-031 3.057450056 -5.950059891
rfingers  -90 -7.125020027 -90
rthumb  -84.59812711 -9.830268758 -61.01961776
rfemur  -12.37841892 17.02767944 12.36297131
rtibia  -1.355103612 -1.207199931 21.28374863
rfoot  0.1363647133 -22.13097382 -35.8455925
rtoes  3.779771768 19.65396365 -101.1128436
lfemur  -8.149819374 -17.29296684 -20.84934616
ltibia  1.979954362 -1.810633659 15.47483444
lfoot  0.8577538729 -22.50419998 38.54594803
ltoes  -8.660833745 -18.09709556 -116.12183
256
root  34.93758975 36.50286517 -14.93349451 8.00902462 -6.307591438 3.888542652
lowerback  -7.389579773 -1.001150012 -0.8480250835
upperback  -3.77602005 -0.8385689855 -3.652349949
thorax  0.2014500052 -0.2672699988 -3.354520082
lowerneck  -11.13949966 -4.126440048 -1.846459985
upperneck  14.26299953 -6.109479427 6.95238018
head  6.450079918 -2.355410099 1.990479827
lclavicle  0 -4.497500157e-015 -2.743230041e-014
lhumerus  -46.95640182 28.17770004 64.57160187
lradius  0.004719055258 -6.507048965e-006 30.4817009
lwrist  4.824992743e-007 -3.790274832e-007 -28.17200089
lhand  -0 -36.95510101 -10.36509991
lfingers  90 7.125020027 -90
lthumb  94.77577038 -25.20481961 101.0996093
rclavicle  0 -4.497500157e-015 -2.743230041e-014
rhumerus  -43.59830093 -29.44389725 -6.062463284
rradius  -5.16745672e-007 2.214343908e-008 76.38150024
rwrist  -7.499573258e-005 0.03438235447 179.0189972
rhand  -1.768241542e-031 3.154350042 -5.80095005
rfingers  -90 -7.125020027 -90
rthumb  -84.50091829 -9.965484567 -60.9121963
rfemur  -12.36965942 17.01410866 12.38304996
rtibia  -1.343705416 -1.192284822 21.2490406
rfoot  0.1573973447 -22.09483147 -35.85056686
rtoes  3.773962694 19.65503736 -101.0955726
lfemur  -8.160942078 -17.26485443 -20.8138237
ltibia  1.978612185 -1.761201978 15.47521019
lfoot  0.8763385415 -22.60371399 38.54315186
ltoes  -8.668102293 -18.09370584 -116.1452316
257
root  34.93569742 36.50612118 -14.93027905 8.014229774 -6.270874977 3.880172014
lowerback  -7.399069786 -1.016960025 -0.909522295
upperback  -3.76357007 -0.8581200242 -3.609859943
thorax  0.2204200029 -0.2768959999 -3.277250051
lowerneck  -11.2986002 -3.756030083 -1.550940037
upperneck  14.35830021 -5.624239445 6.715350151
head  6.4697299 -2.120320082 1.909360051
lclavicle  0 -4.497500157e-015 -2.743230041e-014
lhumerus  -46.98699951 28.28280067 64.57240295
lradius  0.004719055258 -6.507048965e-006 30.50360107
lwrist  4.824992743e-007 -3.790274832e-007 -28.0265007
lhand  -4.4203722e-031 -36.98149872 -10.36349964
lfingers  90 7.125020027 -90
lthumb  94.78764474 -25.20230088 101.1276582
rclavicle  0 -4.497500157e-015 -2.743230041e-014
rhumerus  -44.03649902 -29.03580284 -6.400598526
rradius  -5.16745672e-007 2.214343908e-008 77.53420258
rwrist  -7.499573258e-005 0.03438235447 178.7359924
rhand  -1.768210677e-031 3.136149883 -5.818649769
rfingers  -90 -7.125020027 -90
rthumb  -84.51415483 -9.949050752 -60.93144592
rfemur  -12.35113144 16.98532677 12.39813137
rtibia  -1.337265134 -1.18518877 21.2294178
rfoot  0.1678468436 -22.08507538 -35.84227371
rtoes  3.792956318 19.65152032 -101.1520462
lfemur  -8.118234634 -17.26661301 -20.8187294
ltibia  2.017402649 -1.732990503 15.41641617
lfoot  0.8821681738 -22.62132454 38.54600906
ltoes  -8.645420154 -18.10427197 -116.0722188
258
root  34.93348369 36.50763204 -14.92755019 8.024953842 -6.22853756 3.864678144
lowerback  -7.375769615 -0.9877259135 -0.838524878
upperback  -3.769619942 -0.8230689764 -3.643290043
thorax  0.2012369931 -0.260145992 -3.349129915
lowerneck  -11.36349964 -3.470249891 -1.310439944
upperneck  14.36730003 -5.249489784 6.535809994
head  6.455979824 -1.941050172 1.846549988
lclavicle  0 -4.497500157e-015 -2.743230041e-014
lhumerus  -46.98429871 28.24150085 64.55780029
lradius  0.004719055258 -6.507048965e-006 30.50729752
lwrist  4.824992743e-007 -3.790274832e-007 -28.05040169
lhand  -0 -37.03469849 -10.45030022
lfingers  90 7.125020027 -90
lthumb  94.83085653 -25.28561151 101.1923245
rclavicle  0 -4.497500157e-015 -2.743230041e-014
rhumerus  -44.67559814 -28.55129814 -6.702743053
rradius  -5.16745672e-007 2.214343908e-008 78.77549744
rwrist  -7.499573258e-005 0.03438235447 178.326004
rhand  -1.768362706e-031 3.22480011 -5.970089912
rfingers  -90 -7.125020027 -90
rthumb  -84.56717232 -9.821213906 -60.85758115
rfemur  -12.35039043 17.0132637 12.42700005
rtibia  -1.338278294 -1.161628246 21.22810745
rfoot  0.1626103669 -22.05453491 -35.88661575
rtoes  3.798479056 19.65049422 -101.1684687
lfemur  -8.091625214 -17.24134254 -20.80613899
ltibia  2.047583103 -1.694977164 15.37230492
lfoot  0.8810527325 -22.66139793 38.51116562
ltoes  -8.65605228 -18.09932348 -116.106438
259
root  34.93060014 36.50366716 -14.92259859 8.019197464 -6.171183109 3.87026906
lowerback  -7.355659962 -0.9767659903 -0.7857877612
upperback  -3.783190012 -0.8124799728 -3.646290064
thorax  0.1756819934 -0.2555840015 -3.380899906
lowerneck  -11.39519978 -3.190020084 -1.109830022
upperneck  14.33950043 -4.881800652 6.412069798
head  6.429120064 -1.764240026 1.807639837
lclavicle  0 -4.497500157e-015 -2.743230041e-014
lhumerus  -47.01179886 28.23220062 64.54149628
lradius  0.004719055258 -6.507048965e-006 30.51600075
lwrist  4.824992743e-007 -3.790274832e-007 -28.01819801
lhand  -4.422273508e-031 -37.0141983 -10.29049969
lfingers  90 7.125020027 -90
lthumb  94.78717414 -25.12951046 101.1559589
rclavicle  0 -4.497500157e-015 -2.743230041e-014
rhumerus  -45.23310089 -28.15179825 -6.989462852
rradius  -5.16745672e-007 2.214343908e-008 79.87310028
rwrist  -7.499573258e-005 0.03438235447 177.9579926
rhand  -1.768379041e-031 3.234179974 -6.052840233
rfingers  -90 -7.125020027 -90
rthumb  -84.60575523 -9.749444963 -60.85531019
rfemur  -12.32700253 16.98546791 12.44069958
rtibia  -1.338238597 -1.156124234 21.23571014
rfoot  0.1501397789 -22.06130981 -35.90843964
rtoes  3.821813222 19.64614169 -101.2378649
lfemur  -8.004507065 -17.23272133 -20.84996796
ltibia  2.121445417 -1.674745917 15.26022911
lfoot  0.8716859221 -22.63637924 38.47510147
ltoes  -8.651916086 -18.10124949 -116.0931247
260
root  34.92823323 36.50478453 -14.91936211 8.011291504 -6.131404877 3.860059023
lowerback  -7.376395226 -0.9827570319 -0.7935494781
upperback  -3.778259993 -0.8163620234 -3.626660109
thorax  0.1925150007 -0.2578811944 -3.356389999
lowerneck  -11.48950005 -2.929749966 -1.031559944
upperneck  14.38140011 -4.541129589 6.408659935
head  6.443309784 -1.592899919 1.824209929
lclavicle  0 -4.497500157e-015 -2.743230041e-014
lhumerus  -47.07860184 28.30050087 64.51260376
lradius  0.004719055258 -6.507048965e-006 30.55260086
lwrist  4.824992743e-007 -3.790274832e-007 -28.01819801
lhand  -4.421005776e-031 -36.99240112 -10.06099987
lfingers  90 7.125020027 -90
lthumb  94.72826373 -24.90519695 101.1119914
rclavicle  0 -4.497500157e-015 -2.743230041e-014
rhumerus  -45.75429916 -27.74760056 -7.344623089
rradius  -5.16745672e-007 2.214343908e-008 81.06150055
rwrist  -7.499573258e-005 0.03438235447 177.2949982
rhand  -0 3.238320112 -5.864729881
rfingers  -90 -7.125020027 -90
rthumb  -84.51176732 -9.913856989 -60.83533816
rfemur  -12.28837204 16.98820686 12.46095181
rtibia  -1.327586412 -1.14755404 21.20639992
rfoot  0.1545900553 -22.05544472 -35.94449997
rtoes  3.798942185 19.65040811 -101.169846
lfemur  -7.967440128 -17.24615669 -20.84848976
ltibia  2.143061399 -1.648502707 15.23304558
lfoot  0.8792577386 -22.67757225 38.47219467
ltoes  -8.65165721 -18.10136999 -116.0922915
